<svg xmlns="http://www.w3.org/2000/svg" xmlns:xlink="http://www.w3.org/1999/xlink" width="200" zoomAndPan="magnify" viewBox="0 0 150 74.999997" height="100" preserveAspectRatio="xMidYMid meet" version="1.0"><defs><g/><clipPath id="8c5898fc29"><path d="M 19.039062 12.128906 L 131 12.128906 L 131 62.871094 L 19.039062 62.871094 Z M 19.039062 12.128906 " clip-rule="nonzero"/></clipPath><clipPath id="c88bd7c40f"><path d="M 102.980469 12.128906 C 118.433594 12.128906 130.960938 23.488281 130.960938 37.5 C 130.960938 51.511719 118.433594 62.871094 102.980469 62.871094 L 47.019531 62.871094 C 31.566406 62.871094 19.039062 51.511719 19.039062 37.5 C 19.039062 23.488281 31.566406 12.128906 47.019531 12.128906 Z M 102.980469 12.128906 " clip-rule="nonzero"/></clipPath></defs><g clip-path="url(#8c5898fc29)"><g clip-path="url(#c88bd7c40f)"><path fill="#ff3131" d="M 19.039062 12.128906 L 131.027344 12.128906 L 131.027344 62.871094 L 19.039062 62.871094 Z M 19.039062 12.128906 " fill-opacity="1" fill-rule="nonzero"/></g></g><g fill="#ffffff" fill-opacity="1"><g transform="translate(31.377375, 46.628814)"><g><path d="M 16.6875 -8.90625 C 16.6875 -6.9375 16.3125 -5.289062 15.5625 -3.96875 C 14.8125 -2.65625 13.722656 -1.664062 12.296875 -1 C 10.867188 -0.332031 9.148438 0 7.140625 0 L 2.203125 0 L 2.203125 -17.46875 L 7.6875 -17.46875 C 9.519531 -17.46875 11.109375 -17.140625 12.453125 -16.484375 C 13.796875 -15.835938 14.835938 -14.878906 15.578125 -13.609375 C 16.316406 -12.335938 16.6875 -10.769531 16.6875 -8.90625 Z M 12.84375 -8.8125 C 12.84375 -10.09375 12.648438 -11.148438 12.265625 -11.984375 C 11.890625 -12.816406 11.332031 -13.429688 10.59375 -13.828125 C 9.863281 -14.234375 8.957031 -14.4375 7.875 -14.4375 L 5.90625 -14.4375 L 5.90625 -3.0625 L 7.484375 -3.0625 C 9.296875 -3.0625 10.640625 -3.539062 11.515625 -4.5 C 12.398438 -5.46875 12.84375 -6.90625 12.84375 -8.8125 Z M 12.84375 -8.8125 "/></g></g></g><g fill="#ffffff" fill-opacity="1"><g transform="translate(49.489983, 46.628814)"><g><path d="M 12.265625 0 L 2.203125 0 L 2.203125 -17.46875 L 12.265625 -17.46875 L 12.265625 -14.4375 L 5.90625 -14.4375 L 5.90625 -10.59375 L 11.8125 -10.59375 L 11.8125 -7.5625 L 5.90625 -7.5625 L 5.90625 -3.0625 L 12.265625 -3.0625 Z M 12.265625 0 "/></g></g></g><g fill="#ffffff" fill-opacity="1"><g transform="translate(63.193916, 46.628814)"><g><path d="M 2.203125 0 L 2.203125 -17.46875 L 5.90625 -17.46875 L 5.90625 -3.0625 L 12.984375 -3.0625 L 12.984375 0 Z M 2.203125 0 "/></g></g></g><g fill="#ffffff" fill-opacity="1"><g transform="translate(77.017324, 46.628814)"><g><path d="M 12.265625 0 L 2.203125 0 L 2.203125 -17.46875 L 12.265625 -17.46875 L 12.265625 -14.4375 L 5.90625 -14.4375 L 5.90625 -10.59375 L 11.8125 -10.59375 L 11.8125 -7.5625 L 5.90625 -7.5625 L 5.90625 -3.0625 L 12.265625 -3.0625 Z M 12.265625 0 "/></g></g></g><g fill="#ffffff" fill-opacity="1"><g transform="translate(90.721257, 46.628814)"><g><path d="M 8.9375 0 L 5.234375 0 L 5.234375 -14.390625 L 0.484375 -14.390625 L 0.484375 -17.46875 L 13.6875 -17.46875 L 13.6875 -14.390625 L 8.9375 -14.390625 Z M 8.9375 0 "/></g></g></g><g fill="#ffffff" fill-opacity="1"><g transform="translate(104.891147, 46.628814)"><g><path d="M 12.265625 0 L 2.203125 0 L 2.203125 -17.46875 L 12.265625 -17.46875 L 12.265625 -14.4375 L 5.90625 -14.4375 L 5.90625 -10.59375 L 11.8125 -10.59375 L 11.8125 -7.5625 L 5.90625 -7.5625 L 5.90625 -3.0625 L 12.265625 -3.0625 Z M 12.265625 0 "/></g></g></g></svg>