<svg xmlns="http://www.w3.org/2000/svg" xmlns:xlink="http://www.w3.org/1999/xlink" width="200" zoomAndPan="magnify" viewBox="0 0 150 74.999997" height="100" preserveAspectRatio="xMidYMid meet" version="1.0"><defs><g/><clipPath id="02ff77867d"><path d="M 19.039062 12.128906 L 131 12.128906 L 131 62.871094 L 19.039062 62.871094 Z M 19.039062 12.128906 " clip-rule="nonzero"/></clipPath><clipPath id="97f4c3b1e2"><path d="M 102.980469 12.128906 C 118.433594 12.128906 130.960938 23.488281 130.960938 37.5 C 130.960938 51.511719 118.433594 62.871094 102.980469 62.871094 L 47.019531 62.871094 C 31.566406 62.871094 19.039062 51.511719 19.039062 37.5 C 19.039062 23.488281 31.566406 12.128906 47.019531 12.128906 Z M 102.980469 12.128906 " clip-rule="nonzero"/></clipPath></defs><g clip-path="url(#02ff77867d)"><g clip-path="url(#97f4c3b1e2)"><path fill="#00bf63" d="M 19.039062 12.128906 L 131.027344 12.128906 L 131.027344 62.871094 L 19.039062 62.871094 Z M 19.039062 12.128906 " fill-opacity="1" fill-rule="nonzero"/></g></g><g fill="#ffffff" fill-opacity="1"><g transform="translate(52.189873, 46.628812)"><g><path d="M 8.828125 -9.8125 L 15.765625 -9.8125 L 15.765625 -0.75 C 14.847656 -0.445312 13.894531 -0.207031 12.90625 -0.03125 C 11.914062 0.144531 10.796875 0.234375 9.546875 0.234375 C 7.804688 0.234375 6.332031 -0.101562 5.125 -0.78125 C 3.914062 -1.46875 2.992188 -2.476562 2.359375 -3.8125 C 1.734375 -5.15625 1.421875 -6.800781 1.421875 -8.75 C 1.421875 -10.582031 1.769531 -12.164062 2.46875 -13.5 C 3.175781 -14.84375 4.207031 -15.878906 5.5625 -16.609375 C 6.925781 -17.347656 8.585938 -17.71875 10.546875 -17.71875 C 11.472656 -17.71875 12.382812 -17.617188 13.28125 -17.421875 C 14.1875 -17.222656 15.003906 -16.960938 15.734375 -16.640625 L 14.5 -13.6875 C 13.96875 -13.957031 13.359375 -14.179688 12.671875 -14.359375 C 11.992188 -14.546875 11.28125 -14.640625 10.53125 -14.640625 C 9.445312 -14.640625 8.507812 -14.390625 7.71875 -13.890625 C 6.925781 -13.398438 6.3125 -12.707031 5.875 -11.8125 C 5.445312 -10.925781 5.234375 -9.882812 5.234375 -8.6875 C 5.234375 -7.550781 5.390625 -6.539062 5.703125 -5.65625 C 6.015625 -4.78125 6.503906 -4.09375 7.171875 -3.59375 C 7.835938 -3.09375 8.707031 -2.84375 9.78125 -2.84375 C 10.3125 -2.84375 10.753906 -2.867188 11.109375 -2.921875 C 11.472656 -2.972656 11.816406 -3.023438 12.140625 -3.078125 L 12.140625 -6.71875 L 8.828125 -6.71875 Z M 8.828125 -9.8125 "/></g></g></g><g fill="#ffffff" fill-opacity="1"><g transform="translate(69.90821, 46.628812)"><g><path d="M 12.265625 0 L 2.203125 0 L 2.203125 -17.46875 L 12.265625 -17.46875 L 12.265625 -14.4375 L 5.90625 -14.4375 L 5.90625 -10.59375 L 11.8125 -10.59375 L 11.8125 -7.5625 L 5.90625 -7.5625 L 5.90625 -3.0625 L 12.265625 -3.0625 Z M 12.265625 0 "/></g></g></g><g fill="#ffffff" fill-opacity="1"><g transform="translate(83.612143, 46.628812)"><g><path d="M 8.9375 0 L 5.234375 0 L 5.234375 -14.390625 L 0.484375 -14.390625 L 0.484375 -17.46875 L 13.6875 -17.46875 L 13.6875 -14.390625 L 8.9375 -14.390625 Z M 8.9375 0 "/></g></g></g></svg>