<svg xmlns="http://www.w3.org/2000/svg" xmlns:xlink="http://www.w3.org/1999/xlink" width="200" zoomAndPan="magnify" viewBox="0 0 150 74.999997" height="100" preserveAspectRatio="xMidYMid meet" version="1.0"><defs><g/><clipPath id="44cc74a824"><path d="M 19.039062 12.128906 L 131 12.128906 L 131 62.871094 L 19.039062 62.871094 Z M 19.039062 12.128906 " clip-rule="nonzero"/></clipPath><clipPath id="60f78bf371"><path d="M 102.980469 12.128906 C 118.433594 12.128906 130.960938 23.488281 130.960938 37.5 C 130.960938 51.511719 118.433594 62.871094 102.980469 62.871094 L 47.019531 62.871094 C 31.566406 62.871094 19.039062 51.511719 19.039062 37.5 C 19.039062 23.488281 31.566406 12.128906 47.019531 12.128906 Z M 102.980469 12.128906 " clip-rule="nonzero"/></clipPath></defs><g clip-path="url(#44cc74a824)"><g clip-path="url(#60f78bf371)"><path fill="#ffde59" d="M 19.039062 12.128906 L 131.027344 12.128906 L 131.027344 62.871094 L 19.039062 62.871094 Z M 19.039062 12.128906 " fill-opacity="1" fill-rule="nonzero"/></g></g><g fill="#ffffff" fill-opacity="1"><g transform="translate(50.971123, 46.628814)"><g><path d="M 7.78125 -17.46875 C 10.03125 -17.46875 11.671875 -16.984375 12.703125 -16.015625 C 13.742188 -15.046875 14.265625 -13.710938 14.265625 -12.015625 C 14.265625 -11.253906 14.148438 -10.523438 13.921875 -9.828125 C 13.691406 -9.128906 13.3125 -8.507812 12.78125 -7.96875 C 12.257812 -7.425781 11.566406 -7 10.703125 -6.6875 C 9.835938 -6.375 8.765625 -6.21875 7.484375 -6.21875 L 5.90625 -6.21875 L 5.90625 0 L 2.203125 0 L 2.203125 -17.46875 Z M 7.59375 -14.4375 L 5.90625 -14.4375 L 5.90625 -9.25 L 7.125 -9.25 C 7.8125 -9.25 8.410156 -9.335938 8.921875 -9.515625 C 9.429688 -9.703125 9.828125 -9.988281 10.109375 -10.375 C 10.390625 -10.769531 10.53125 -11.273438 10.53125 -11.890625 C 10.53125 -12.742188 10.289062 -13.378906 9.8125 -13.796875 C 9.332031 -14.222656 8.59375 -14.4375 7.59375 -14.4375 Z M 7.59375 -14.4375 "/></g></g></g><g fill="#ffffff" fill-opacity="1"><g transform="translate(66.335776, 46.628814)"><g><path d="M 16.421875 -17.46875 L 16.421875 -6.171875 C 16.421875 -4.960938 16.15625 -3.875 15.625 -2.90625 C 15.09375 -1.9375 14.289062 -1.171875 13.21875 -0.609375 C 12.144531 -0.046875 10.796875 0.234375 9.171875 0.234375 C 6.867188 0.234375 5.109375 -0.351562 3.890625 -1.53125 C 2.679688 -2.707031 2.078125 -4.269531 2.078125 -6.21875 L 2.078125 -17.46875 L 5.765625 -17.46875 L 5.765625 -6.78125 C 5.765625 -5.332031 6.054688 -4.316406 6.640625 -3.734375 C 7.234375 -3.160156 8.109375 -2.875 9.265625 -2.875 C 10.078125 -2.875 10.734375 -3.007812 11.234375 -3.28125 C 11.742188 -3.5625 12.117188 -3.992188 12.359375 -4.578125 C 12.597656 -5.160156 12.71875 -5.898438 12.71875 -6.796875 L 12.71875 -17.46875 Z M 16.421875 -17.46875 "/></g></g></g><g fill="#ffffff" fill-opacity="1"><g transform="translate(84.830709, 46.628814)"><g><path d="M 8.9375 0 L 5.234375 0 L 5.234375 -14.390625 L 0.484375 -14.390625 L 0.484375 -17.46875 L 13.6875 -17.46875 L 13.6875 -14.390625 L 8.9375 -14.390625 Z M 8.9375 0 "/></g></g></g></svg>