<svg xmlns="http://www.w3.org/2000/svg" xmlns:xlink="http://www.w3.org/1999/xlink" width="200" zoomAndPan="magnify" viewBox="0 0 150 74.999997" height="100" preserveAspectRatio="xMidYMid meet" version="1.0"><defs><g/><clipPath id="c5c6a9fab8"><path d="M 19.039062 12.128906 L 131 12.128906 L 131 62.871094 L 19.039062 62.871094 Z M 19.039062 12.128906 " clip-rule="nonzero"/></clipPath><clipPath id="d4fd9af76f"><path d="M 102.980469 12.128906 C 118.433594 12.128906 130.960938 23.488281 130.960938 37.5 C 130.960938 51.511719 118.433594 62.871094 102.980469 62.871094 L 47.019531 62.871094 C 31.566406 62.871094 19.039062 51.511719 19.039062 37.5 C 19.039062 23.488281 31.566406 12.128906 47.019531 12.128906 Z M 102.980469 12.128906 " clip-rule="nonzero"/></clipPath></defs><g clip-path="url(#c5c6a9fab8)"><g clip-path="url(#d4fd9af76f)"><path fill="#004aad" d="M 19.039062 12.128906 L 131.027344 12.128906 L 131.027344 62.871094 L 19.039062 62.871094 Z M 19.039062 12.128906 " fill-opacity="1" fill-rule="nonzero"/></g></g><g fill="#ffffff" fill-opacity="1"><g transform="translate(43.740655, 46.628814)"><g><path d="M 7.78125 -17.46875 C 10.03125 -17.46875 11.671875 -16.984375 12.703125 -16.015625 C 13.742188 -15.046875 14.265625 -13.710938 14.265625 -12.015625 C 14.265625 -11.253906 14.148438 -10.523438 13.921875 -9.828125 C 13.691406 -9.128906 13.3125 -8.507812 12.78125 -7.96875 C 12.257812 -7.425781 11.566406 -7 10.703125 -6.6875 C 9.835938 -6.375 8.765625 -6.21875 7.484375 -6.21875 L 5.90625 -6.21875 L 5.90625 0 L 2.203125 0 L 2.203125 -17.46875 Z M 7.59375 -14.4375 L 5.90625 -14.4375 L 5.90625 -9.25 L 7.125 -9.25 C 7.8125 -9.25 8.410156 -9.335938 8.921875 -9.515625 C 9.429688 -9.703125 9.828125 -9.988281 10.109375 -10.375 C 10.390625 -10.769531 10.53125 -11.273438 10.53125 -11.890625 C 10.53125 -12.742188 10.289062 -13.378906 9.8125 -13.796875 C 9.332031 -14.222656 8.59375 -14.4375 7.59375 -14.4375 Z M 7.59375 -14.4375 "/></g></g></g><g fill="#ffffff" fill-opacity="1"><g transform="translate(59.105308, 46.628814)"><g><path d="M 18.046875 -8.75 C 18.046875 -7.40625 17.878906 -6.179688 17.546875 -5.078125 C 17.210938 -3.972656 16.703125 -3.023438 16.015625 -2.234375 C 15.335938 -1.441406 14.476562 -0.832031 13.4375 -0.40625 C 12.394531 0.0195312 11.160156 0.234375 9.734375 0.234375 C 8.304688 0.234375 7.070312 0.0195312 6.03125 -0.40625 C 4.988281 -0.832031 4.125 -1.441406 3.4375 -2.234375 C 2.757812 -3.023438 2.253906 -3.972656 1.921875 -5.078125 C 1.585938 -6.191406 1.421875 -7.425781 1.421875 -8.78125 C 1.421875 -10.59375 1.71875 -12.164062 2.3125 -13.5 C 2.90625 -14.84375 3.816406 -15.882812 5.046875 -16.625 C 6.285156 -17.375 7.859375 -17.75 9.765625 -17.75 C 11.660156 -17.75 13.21875 -17.375 14.4375 -16.625 C 15.65625 -15.882812 16.5625 -14.84375 17.15625 -13.5 C 17.75 -12.15625 18.046875 -10.570312 18.046875 -8.75 Z M 5.3125 -8.75 C 5.3125 -7.53125 5.460938 -6.484375 5.765625 -5.609375 C 6.066406 -4.734375 6.546875 -4.054688 7.203125 -3.578125 C 7.859375 -3.109375 8.703125 -2.875 9.734375 -2.875 C 10.785156 -2.875 11.640625 -3.109375 12.296875 -3.578125 C 12.953125 -4.054688 13.425781 -4.734375 13.71875 -5.609375 C 14.019531 -6.484375 14.171875 -7.53125 14.171875 -8.75 C 14.171875 -10.582031 13.828125 -12.023438 13.140625 -13.078125 C 12.453125 -14.128906 11.328125 -14.65625 9.765625 -14.65625 C 8.722656 -14.65625 7.867188 -14.414062 7.203125 -13.9375 C 6.546875 -13.46875 6.066406 -12.789062 5.765625 -11.90625 C 5.460938 -11.03125 5.3125 -9.976562 5.3125 -8.75 Z M 5.3125 -8.75 "/></g></g></g><g fill="#ffffff" fill-opacity="1"><g transform="translate(78.579947, 46.628814)"><g><path d="M 12.515625 -4.84375 C 12.515625 -3.8125 12.257812 -2.910156 11.75 -2.140625 C 11.25 -1.378906 10.519531 -0.789062 9.5625 -0.375 C 8.601562 0.03125 7.4375 0.234375 6.0625 0.234375 C 5.457031 0.234375 4.863281 0.191406 4.28125 0.109375 C 3.707031 0.0351562 3.15625 -0.078125 2.625 -0.234375 C 2.101562 -0.390625 1.601562 -0.582031 1.125 -0.8125 L 1.125 -4.25 C 1.945312 -3.882812 2.804688 -3.550781 3.703125 -3.25 C 4.597656 -2.957031 5.484375 -2.8125 6.359375 -2.8125 C 6.960938 -2.8125 7.445312 -2.890625 7.8125 -3.046875 C 8.1875 -3.210938 8.457031 -3.4375 8.625 -3.71875 C 8.789062 -4 8.875 -4.316406 8.875 -4.671875 C 8.875 -5.109375 8.726562 -5.484375 8.4375 -5.796875 C 8.144531 -6.109375 7.738281 -6.398438 7.21875 -6.671875 C 6.707031 -6.941406 6.128906 -7.226562 5.484375 -7.53125 C 5.078125 -7.726562 4.632812 -7.960938 4.15625 -8.234375 C 3.675781 -8.515625 3.222656 -8.851562 2.796875 -9.25 C 2.367188 -9.644531 2.015625 -10.125 1.734375 -10.6875 C 1.460938 -11.257812 1.328125 -11.945312 1.328125 -12.75 C 1.328125 -13.789062 1.566406 -14.679688 2.046875 -15.421875 C 2.523438 -16.160156 3.207031 -16.726562 4.09375 -17.125 C 4.976562 -17.519531 6.023438 -17.71875 7.234375 -17.71875 C 8.148438 -17.71875 9.019531 -17.609375 9.84375 -17.390625 C 10.664062 -17.179688 11.523438 -16.878906 12.421875 -16.484375 L 11.234375 -13.609375 C 10.429688 -13.929688 9.707031 -14.179688 9.0625 -14.359375 C 8.425781 -14.546875 7.78125 -14.640625 7.125 -14.640625 C 6.65625 -14.640625 6.257812 -14.5625 5.9375 -14.40625 C 5.613281 -14.257812 5.367188 -14.050781 5.203125 -13.78125 C 5.035156 -13.519531 4.953125 -13.21875 4.953125 -12.875 C 4.953125 -12.457031 5.070312 -12.101562 5.3125 -11.8125 C 5.550781 -11.53125 5.914062 -11.257812 6.40625 -11 C 6.894531 -10.738281 7.507812 -10.429688 8.25 -10.078125 C 9.132812 -9.660156 9.894531 -9.222656 10.53125 -8.765625 C 11.164062 -8.304688 11.65625 -7.765625 12 -7.140625 C 12.34375 -6.523438 12.515625 -5.757812 12.515625 -4.84375 Z M 12.515625 -4.84375 "/></g></g></g><g fill="#ffffff" fill-opacity="1"><g transform="translate(92.056874, 46.628814)"><g><path d="M 8.9375 0 L 5.234375 0 L 5.234375 -14.390625 L 0.484375 -14.390625 L 0.484375 -17.46875 L 13.6875 -17.46875 L 13.6875 -14.390625 L 8.9375 -14.390625 Z M 8.9375 0 "/></g></g></g></svg>